<?xml version="1.0" encoding="UTF-8" standalone="no"?>
<svg
   id="Camada_1"
   data-name="Camada 1"
   viewBox="0 0 1030 1030"
   version="1.1"
   sodipodi:docname="favicon.svg"
   width="1030"
   height="1030"
   inkscape:version="1.4.2 (ebf0e940, 2025-05-08)"
   xml:space="preserve"
   xmlns:inkscape="http://www.inkscape.org/namespaces/inkscape"
   xmlns:sodipodi="http://sodipodi.sourceforge.net/DTD/sodipodi-0.dtd"
   xmlns="http://www.w3.org/2000/svg"
   xmlns:svg="http://www.w3.org/2000/svg"><sodipodi:namedview
     id="namedview1"
     pagecolor="#ffffff"
     bordercolor="#000000"
     borderopacity="0.25"
     inkscape:showpageshadow="2"
     inkscape:pageopacity="0.0"
     inkscape:pagecheckerboard="0"
     inkscape:deskcolor="#d1d1d1"
     inkscape:zoom="0.32"
     inkscape:cx="264.0625"
     inkscape:cy="945.3125"
     inkscape:window-width="2560"
     inkscape:window-height="1022"
     inkscape:window-x="0"
     inkscape:window-y="30"
     inkscape:window-maximized="1"
     inkscape:current-layer="Camada_1" /><defs
     id="defs1"><style
       id="style1">
      .cls-1 {
        fill: #fff;
      }

      .cls-2 {
        fill: #1d1d1b;
      }
    </style></defs><path
     id="Caminho_4056"
     data-name="Caminho 4056"
     class="cls-1"
     d="M 935.23,15.444999 H 101.9 c -46.030001,0 -83.340001,37.31 -83.340001,83.340001 v 833.33 c 0,46.03 37.31,83.34 83.340001,83.34 h 833.33 c 46.03,0 83.34,-37.31 83.34,-83.34 v 0 -833.33 c 0,-46.030001 -37.31,-83.340001 -83.34,-83.340001 v 0 M 629.64,182.105 h 222.24 v 269.45 C 798.27,383.405 716.35,343.615 629.64,343.605 Z M 407.49,848.785 H 185.24 v -278.07 c 53.61,68.15 135.53,107.94 222.24,107.95 v 170.12 z m 444.42,0 H 629.68 v -209.96 c 0,-6.77 -5.48,-12.26 -12.25,-12.27 H 407.45 c -122.73,0 -222.23,-99.49 -222.23,-222.23 v -222.23 h 222.23 v 209.98 c 0,6.77 5.48,12.26 12.25,12.27 h 209.98 c 122.73,0 222.22,99.49 222.24,222.23 v 222.2 z"
     style="fill:#1a1a1a" /></svg>
