<?xml version="1.0" encoding="UTF-8" standalone="no"?>
<svg
   id="Camada_1"
   data-name="Camada 1"
   viewBox="0 0 2000 472.7"
   version="1.1"
   sodipodi:docname="dark.svg"
   inkscape:version="1.4.2 (ebf0e940, 2025-05-08)"
   width="2000"
   height="472.70001"
   xmlns:inkscape="http://www.inkscape.org/namespaces/inkscape"
   xmlns:sodipodi="http://sodipodi.sourceforge.net/DTD/sodipodi-0.dtd"
   xmlns="http://www.w3.org/2000/svg"
   xmlns:svg="http://www.w3.org/2000/svg">
  <sodipodi:namedview
     id="namedview2"
     pagecolor="#ffffff"
     bordercolor="#000000"
     borderopacity="0.25"
     inkscape:showpageshadow="2"
     inkscape:pageopacity="0.0"
     inkscape:pagecheckerboard="0"
     inkscape:deskcolor="#d1d1d1"
     inkscape:zoom="0.32"
     inkscape:cx="882.8125"
     inkscape:cy="828.125"
     inkscape:window-width="1512"
     inkscape:window-height="921"
     inkscape:window-x="2560"
     inkscape:window-y="33"
     inkscape:window-maximized="1"
     inkscape:current-layer="Camada_1" />
  <defs
     id="defs1">
    <style
       id="style1">
      .cls-1 {
        fill: #7f6e60;
      }

      .cls-2, .cls-3 {
        fill: none;
      }

      .cls-3 {
        clip-path: url(#clippath);
      }

      .cls-4 {
        fill: #2e241c;
      }
    </style>
    <clipPath
       id="clippath">
      <rect
         class="cls-2"
         x="273.26001"
         y="286.92001"
         width="1453.48"
         height="320.85001"
         id="rect1" />
    </clipPath>
  </defs>
  <g
     class="cls-3"
     clip-path="url(#clippath)"
     id="g2"
     transform="matrix(1.348302,0,0,1.348302,-348.30201,-366.88999)">
    <g
       id="Grupo_899"
       data-name="Grupo 899">
      <path
         id="Caminho_4050"
         data-name="Caminho 4050"
         class="cls-4"
         d="m 1295.13,380.7 v -40.3 h -34.18 v 143.23 c 0,45.68 26.63,67.03 60.87,67.03 h 41.73 v -31.54 h -63.62 c -2.65,0 -4.8,-2.14 -4.8,-4.79 v 0 -92.2 c 0,-2.65 2.15,-4.8 4.8,-4.8 h 63.62 V 385.5 h -63.62 c -2.65,0 -4.8,-2.15 -4.8,-4.8" />
      <path
         id="Caminho_4051"
         data-name="Caminho 4051"
         class="cls-4"
         d="m 976.46,381.89 v 0 c -50.23,0 -85.94,36.65 -85.94,86.51 0,49.86 35.99,85.89 86.54,85.89 35.39,0 67.16,-17.45 80.19,-54.37 h -35.44 c -7.84,16.2 -24.49,24.63 -44.48,24.63 -26.08,0 -46.56,-14.79 -51.3,-41.61 -0.43,-2.61 1.34,-5.08 3.96,-5.51 0.26,-0.04 0.53,-0.06 0.79,-0.06 h 125.2 c 2.63,-0.01 4.77,-2.13 4.81,-4.75 1.09,-51.95 -32.34,-90.73 -84.33,-90.73 m -49.36,67.86 c 5.76,-22.23 23.34,-38.44 49.35,-38.44 26.01,0 42.35,15.93 47.5,38.44 z" />
      <path
         id="Caminho_4052"
         data-name="Caminho 4052"
         class="cls-4"
         d="m 1159.01,381.89 v 0 c -50.23,0 -85.95,36.65 -85.95,86.51 0,49.86 36,85.89 86.56,85.89 35.39,0 67.16,-17.45 80.19,-54.37 h -35.44 c -7.84,16.2 -24.49,24.63 -44.48,24.63 -26.08,0 -46.57,-14.79 -51.3,-41.61 -0.43,-2.61 1.34,-5.08 3.96,-5.51 0.26,-0.04 0.53,-0.06 0.79,-0.06 h 125.15 c 2.63,-0.01 4.77,-2.12 4.81,-4.75 1.13,-51.95 -32.34,-90.73 -84.3,-90.73 m -49.34,67.85 c 5.76,-22.23 23.34,-38.44 49.35,-38.44 26.01,0 42.35,15.93 47.5,38.44 z" />
      <path
         id="Caminho_4053"
         data-name="Caminho 4053"
         class="cls-4"
         d="m 1456.23,381.89 c -46.86,-0.75 -85.47,36.63 -86.22,83.49 -0.01,0.9 -0.01,1.79 0,2.69 0.3,47.63 39.16,86 86.79,85.7 47.21,-0.3 85.4,-38.49 85.7,-85.7 0.82,-46.78 -36.44,-85.36 -83.21,-86.18 -1.02,-0.02 -2.04,-0.02 -3.06,0 m 0,139.95 c -29.03,0 -51.71,-21.91 -51.71,-53.77 0,-31.86 22.99,-53.77 51.71,-53.77 28.72,0 51.76,21.95 51.76,53.77 0,31.82 -22.68,53.77 -51.76,53.77" />
      <path
         id="Caminho_4054"
         data-name="Caminho 4054"
         class="cls-4"
         d="m 1640.51,381.89 c -46.87,-0.78 -85.49,36.59 -86.27,83.46 -0.01,0.91 -0.02,1.81 0,2.72 0.3,47.63 39.16,86 86.79,85.7 47.21,-0.3 85.4,-38.49 85.7,-85.7 0.84,-46.75 -36.37,-85.34 -83.12,-86.18 -1.03,-0.02 -2.07,-0.02 -3.1,0 m 0,139.95 c -29.08,0 -51.76,-21.91 -51.76,-53.77 0,-31.86 22.99,-53.77 51.76,-53.77 28.77,0 51.76,21.95 51.76,53.77 0,31.82 -22.73,53.77 -51.76,53.77" />
      <path
         id="Caminho_4055"
         data-name="Caminho 4055"
         class="cls-4"
         d="m 837.19,416.34 c 0,2.65 -2.15,4.8 -4.8,4.8 h -92.35 c -2.65,0 -4.8,-2.15 -4.8,-4.8 V 340.4 h -34.19 v 210.24 h 34.21 v -90.53 c 0,-2.65 2.15,-4.8 4.8,-4.8 h 92.29 c 2.65,0 4.8,2.15 4.8,4.8 v 90.53 h 34.21 V 340.4 h -34.18 v 75.93 z" />
      <path
         id="Caminho_4056"
         data-name="Caminho 4056"
         class="cls-4"
         d="M 567.38,286.92 H 300 c -14.77,0 -26.74,11.97 -26.74,26.74 v 267.38 c 0,14.77 11.97,26.74 26.74,26.74 h 267.38 c 14.77,0 26.74,-11.97 26.74,-26.74 v 0 -267.38 c 0,-14.77 -11.97,-26.74 -26.74,-26.74 v 0 m -98.05,53.47 h 71.31 v 86.45 C 523.44,404.97 497.16,392.21 469.33,392.2 V 340.38 Z M 398.05,554.3 h -71.31 v -89.22 c 17.2,21.87 43.48,34.63 71.31,34.64 z m 142.59,0 h -71.3 v -67.37 c 0,-2.17 -1.76,-3.93 -3.93,-3.94 h -67.37 c -39.38,0 -71.3,-31.92 -71.3,-71.3 v -71.3 h 71.3 v 67.37 c 0,2.17 1.76,3.93 3.93,3.94 h 67.37 c 39.38,0 71.3,31.92 71.31,71.3 v 71.29 z" />
    </g>
  </g>
</svg>
